<?xml version="1.0" encoding="UTF-8" standalone="no"?>
<svg
   id="svg1"
   version="1.1"
   viewBox="0 0 262144 262144"
   sodipodi:docname="cc-logo.svg"
   width="262144"
   height="262144"
   xmlns:inkscape="http://www.inkscape.org/namespaces/inkscape"
   xmlns:sodipodi="http://sodipodi.sourceforge.net/DTD/sodipodi-0.dtd"
   xmlns="http://www.w3.org/2000/svg"
   xmlns:svg="http://www.w3.org/2000/svg">
  <!-- Generator: Adobe Illustrator 29.1.0, SVG Export Plug-In . SVG Version: 2.1.0 Build 142)  -->
  <defs
     id="defs1">
    <style
       id="style1">
      .st0 {
        fill: #00b3b3;
      }

      .st1 {
        isolation: isolate;
      }

      .st2 {
        fill: #b35a00;
      }
    </style>
  </defs>
  <sodipodi:namedview
     id="namedview1"
     bordercolor="#000000"
     borderopacity="0.25"
     inkscape:current-layer="layer1"
     inkscape:cx="278.31037"
     inkscape:cy="277.8125"
     inkscape:deskcolor="#d1d1d1"
     inkscape:document-units="px"
     inkscape:pagecheckerboard="0"
     inkscape:pageopacity="0.0"
     inkscape:showpageshadow="2"
     inkscape:window-height="1051"
     inkscape:window-maximized="1"
     inkscape:window-width="1728"
     inkscape:window-x="0"
     inkscape:window-y="38"
     inkscape:zoom="1.0042745"
     pagecolor="#ffffff">
    <inkscape:page
       x="0"
       y="0"
       width="262144"
       height="262144"
       id="page2"
       margin="0"
       bleed="0" />
  </sodipodi:namedview>
  <g
     id="layer1"
     inkscape:groupmode="layer"
     inkscape:label="Layer 1">
    <g
       id="text1"
       class="st1">
      <g
         class="st1"
         id="g1">
        <path
           class="st2"
           d="m 11.7,249.9 c 2,-0.4 3.6,-1.1 4.7,-1.9 1.1,-0.9 1.9,-1.9 2.4,-3 0.5,-1.1 0.7,-2.3 0.7,-3.6 0,-2 -0.1,-4.2 -0.4,-6.6 -0.3,-2.3 -0.6,-4.7 -0.8,-7.2 -0.3,-2.4 -0.4,-4.7 -0.4,-6.9 0,-3.7 1,-6.5 3.1,-8.4 2.1,-1.8 4.7,-2.8 8,-2.8 h 4.1 v 5.2 h -2.9 c -2.1,0 -3.6,0.5 -4.7,1.5 -1.1,1 -1.6,2.6 -1.6,4.8 0,2.2 0.1,4.2 0.4,6.6 0.2,2.4 0.5,4.8 0.8,7.2 0.3,2.4 0.4,4.6 0.4,6.7 0,2.1 -0.7,4.8 -2,6.7 -1.3,1.9 -3.4,3.2 -6.3,3.9 v 0.2 c 2.9,0.6 5,1.9 6.3,3.8 1.3,1.9 2,4.1 2,6.7 0,2.6 -0.1,4.3 -0.4,6.7 -0.3,2.4 -0.5,4.8 -0.8,7.2 -0.3,2.4 -0.4,4.6 -0.4,6.6 0,2 0.5,3.9 1.6,4.8 1.1,0.9 2.6,1.4 4.7,1.4 h 2.9 v 5.3 H 29 c -3.3,0 -5.9,-0.9 -8,-2.8 -2.1,-1.9 -3.1,-4.6 -3.1,-8.3 0,-3.7 0.1,-4.5 0.4,-7 0.3,-2.4 0.6,-4.8 0.8,-7.2 0.3,-2.4 0.4,-4.5 0.4,-6.5 0,-2 -0.2,-2.5 -0.7,-3.6 -0.5,-1.1 -1.3,-2.1 -2.4,-3 -1.1,-0.9 -2.7,-1.5 -4.7,-1.9 v -4.8 z"
           id="path1" />
      </g>
      <g
         class="st1"
         id="g9">
        <path
           class="st0"
           d="m 79.7,217.5 c 3.3,0 6,0.5 8.2,1.5 2.2,1 4.3,2.6 6.3,4.6 l -2.9,4.2 C 89.6,226 87.9,224.7 86,224 c -1.8,-0.7 -3.7,-1.1 -5.7,-1.1 -3,0 -5.8,0.9 -8.4,2.6 -2.6,1.7 -4.7,4.6 -6.3,8.7 -1.6,4.1 -2.4,9.6 -2.4,16.7 0,7.1 0.8,12.3 2.3,16.4 1.5,4.1 3.5,7 6.1,8.8 2.5,1.8 5.4,2.7 8.5,2.7 3.1,0 5.4,-0.5 7.3,-1.6 1.9,-1.1 3.5,-2.3 4.9,-3.8 l 2.7,4.4 c -1.5,1.8 -3.4,3.3 -5.8,4.6 -2.4,1.3 -5.5,2 -9,2 -3.5,0 -7.7,-1.3 -11,-3.9 -3.3,-2.6 -6,-6.4 -7.9,-11.3 -1.9,-4.9 -2.9,-11.1 -2.9,-18.4 0,-7.3 1,-13.5 3,-18.5 2,-5 4.6,-8.7 7.9,-11.3 3.3,-2.5 6.8,-3.8 10.6,-3.8 z"
           id="path2" />
        <path
           class="st0"
           d="m 176.1,232.9 c 1.1,0 2.2,0.3 3.3,0.9 1.2,0.6 2.1,1.9 2.9,3.8 0.8,1.9 1.2,4.9 1.2,8.8 v 37.2 h -4.6 v -36 c 0,-3.5 -0.2,-6.1 -0.5,-7.7 -0.3,-1.6 -1.3,-2.4 -2.9,-2.4 -1.6,0 -2.7,0.5 -4,1.6 -1.3,1.1 -2.6,2.8 -3.7,5.2 v 39.3 h -5.2 v -36 c 0,-3.5 -0.2,-6.1 -0.5,-7.7 -0.3,-1.6 -1.3,-2.4 -2.9,-2.4 -1.6,0 -2.7,0.5 -4,1.6 -1.3,1.1 -2.5,2.8 -3.7,5.2 v 39.3 H 147 v -49.9 h 3.8 l 0.3,6 c 1,-1.9 2.2,-3.5 3.6,-4.9 1.4,-1.4 3.1,-2.1 5.1,-2.1 2,0 3,0.5 4.4,1.4 1.4,0.9 2.5,2.7 3.1,5.4 1,-2 2.2,-3.7 3.5,-4.9 1.3,-1.2 3,-1.9 5.1,-1.9 z"
           id="path3" />
        <path
           class="st0"
           d="m 221.2,232.9 c 1.1,0 2.2,0.3 3.3,0.9 1.2,0.6 2.1,1.9 2.9,3.8 0.8,1.9 1.2,4.9 1.2,8.8 v 37.2 H 224 v -36 c 0,-3.5 -0.2,-6.1 -0.5,-7.7 -0.3,-1.6 -1.3,-2.4 -2.9,-2.4 -1.6,0 -2.7,0.5 -4,1.6 -1.3,1.1 -2.6,2.8 -3.7,5.2 v 39.3 h -5.2 v -36 c 0,-3.5 -0.2,-6.1 -0.5,-7.7 -0.3,-1.6 -1.3,-2.4 -2.9,-2.4 -1.6,0 -2.7,0.5 -4,1.6 -1.3,1.1 -2.5,2.8 -3.7,5.2 v 39.3 h -4.5 v -49.9 h 3.8 l 0.3,6 c 1,-1.9 2.2,-3.5 3.6,-4.9 1.4,-1.4 3.1,-2.1 5.1,-2.1 2,0 3,0.5 4.4,1.4 1.4,0.9 2.5,2.7 3.1,5.4 1,-2 2.2,-3.7 3.5,-4.9 1.3,-1.2 3,-1.9 5.1,-1.9 z"
           id="path4" />
        <path
           class="st0"
           d="m 245.9,233.8 v 35.7 c 0,3.5 0.6,6.1 1.8,7.8 1.2,1.6 3.1,2.4 5.6,2.4 2.5,0 4.8,-0.9 6.9,-2.6 2.2,-1.8 3.8,-3.8 5,-6.1 v -37.2 h 4.7 v 49.9 H 266 l -0.5,-7 c -1.6,2.5 -3.6,4.5 -5.9,5.9 -2.3,1.4 -4.6,2.1 -6.9,2.1 -3.8,0 -6.7,-1.3 -8.6,-3.8 -1.9,-2.5 -2.9,-6.1 -2.9,-10.7 v -36.4 z"
           id="path5" />
        <path
           class="st0"
           d="m 286.3,283.7 v -49.9 h 3.9 l 0.4,7.3 c 1.6,-2.6 3.6,-4.6 6.1,-6 2.5,-1.4 4.9,-2.1 7.1,-2.1 4,0 6.9,1.3 8.6,3.9 1.7,2.6 2.6,6.2 2.6,10.8 v 36.1 h -4.7 V 254 c 0,-3.8 -0.2,-6.9 -0.5,-9.3 -0.3,-2.4 -1,-4.1 -2.1,-5.2 -1.1,-1.1 -2.8,-1.6 -5.1,-1.6 -2.3,0 -3.4,0.5 -4.9,1.4 -1.5,1 -2.9,2.2 -4.1,3.6 -1.2,1.4 -2.1,2.8 -2.8,4.1 v 36.8 h -4.7 z"
           id="path6" />
        <path
           class="st0"
           d="m 350,233.8 v 44.7 h 11.5 v 5.1 h -28.6 v -5.1 h 12.5 v -39.6 h -12.1 v -5.1 z m -4.3,-22.6 c 1.2,0 2.2,0.5 2.9,1.4 0.7,0.9 1.1,2 1.1,3.3 0,1.3 -0.4,2.6 -1.1,3.5 -0.7,0.9 -1.7,1.4 -2.9,1.4 -1.2,0 -2,-0.5 -2.7,-1.4 -0.7,-0.9 -1.1,-2.1 -1.1,-3.5 0,-1.4 0.4,-2.4 1.1,-3.3 0.7,-0.9 1.6,-1.4 2.7,-1.4 z"
           id="path7" />
        <path
           class="st0"
           d="m 406.4,281.3 c -1.3,1.1 -2.9,1.9 -4.7,2.5 -1.9,0.6 -3.6,0.9 -5.1,0.9 -4,0 -7.1,-1.3 -9.3,-4 -2.2,-2.7 -3.4,-6 -3.4,-10 v -31.9 h -9.3 v -4.9 h 9.3 v -11.5 l 4.7,-0.7 v 12.2 h 13.9 l -0.6,4.9 h -13.3 v 31.7 c 0,2.9 0.6,5.1 1.9,6.7 1.2,1.6 3.3,2.4 6.3,2.4 3,0 2.9,-0.2 4.2,-0.7 1.3,-0.4 2.5,-1 3.6,-1.8 l 2,4.2 z"
           id="path8" />
        <path
           class="st0"
           d="m 452.9,233.8 -14.1,50.3 c -0.9,3.1 -1.9,6 -3.2,8.7 -1.3,2.8 -2.9,5.1 -5,7 -2.1,1.9 -4.8,3.1 -8.1,3.6 l -0.8,-5.1 c 2.8,-0.6 4.9,-1.6 6.5,-2.8 1.6,-1.2 2.8,-2.9 3.7,-4.8 0.9,-2 1.7,-4.3 2.4,-7 h -1.5 l -14.2,-49.9 h 5 l 12.4,44.8 12,-44.8 h 4.8 z"
           id="path9" />
      </g>
      <g
         class="st1"
         id="g10">
        <path
           class="st2"
           d="m 487.8,249.9 v 4.8 c -2,0.4 -3.6,1.1 -4.7,1.9 -1.2,0.9 -2,1.9 -2.4,3 -0.5,1.1 -0.7,2.3 -0.7,3.6 0,2 0.1,4.1 0.4,6.5 0.3,2.4 0.5,4.8 0.8,7.2 0.3,2.4 0.4,4.8 0.4,7 0,3.7 -1,6.4 -3.1,8.3 -2.1,1.9 -4.7,2.8 -8,2.8 h -4.1 v -5.3 h 2.9 c 2,0 3.6,-0.5 4.7,-1.4 1.1,-0.9 1.7,-2.6 1.7,-4.8 0,-2.2 -0.1,-4.2 -0.4,-6.6 -0.3,-2.4 -0.5,-4.8 -0.8,-7.2 -0.3,-2.4 -0.4,-4.7 -0.4,-6.7 0,-2 0.7,-4.8 2,-6.7 1.3,-1.9 3.4,-3.2 6.3,-3.8 v -0.2 c -2.9,-0.7 -5,-2 -6.3,-3.9 -1.3,-1.9 -2,-4.1 -2,-6.7 0,-2.6 0.1,-4.3 0.4,-6.7 0.2,-2.4 0.5,-4.8 0.8,-7.2 0.3,-2.4 0.4,-4.6 0.4,-6.6 0,-2 -0.6,-3.8 -1.7,-4.8 -1.1,-1 -2.7,-1.5 -4.7,-1.5 h -2.9 v -5.2 h 4.1 c 3.3,0 5.9,0.9 8,2.8 2.1,1.8 3.1,4.6 3.1,8.4 0,3.8 -0.1,4.4 -0.4,6.9 -0.3,2.4 -0.6,4.8 -0.8,7.2 -0.3,2.3 -0.4,4.5 -0.4,6.6 0,2.1 0.2,2.5 0.7,3.6 0.5,1.1 1.2,2.1 2.4,3 1.2,0.9 2.7,1.5 4.7,1.9 z"
           id="path10" />
      </g>
    </g>
    <g
       id="g11">
      <path
         id="path11"
         class="st2"
         d="m 108.7,270.8 16.3,-4.7 4.7,-16.3 -16.3,4.7 z m 10.5,-7 c -1,0 -1.8,-0.3 -2.5,-1 -0.7,-0.7 -1,-1.5 -1,-2.5 0,-1 0.3,-1.8 1,-2.5 0.7,-0.7 1.5,-1 2.5,-1 1,0 1.8,0.3 2.5,1 0.7,0.7 1,1.5 1,2.5 0,1 -0.3,1.8 -1,2.5 -0.7,0.7 -1.5,1 -2.5,1 z m 0,19.9 c -3.2,0 -6.3,-0.6 -9.1,-1.8 -2.8,-1.2 -5.3,-2.9 -7.4,-5 -2.1,-2.1 -3.8,-4.6 -5,-7.4 -1.2,-2.8 -1.8,-5.9 -1.8,-9.1 0,-3.2 0.6,-6.3 1.8,-9.1 1.2,-2.8 2.9,-5.3 5,-7.4 2.1,-2.1 4.6,-3.8 7.4,-5 2.8,-1.2 5.9,-1.8 9.1,-1.8 3.2,0 6.3,0.6 9.1,1.8 2.8,1.2 5.3,2.9 7.4,5 2.1,2.1 3.8,4.6 5,7.4 1.2,2.8 1.8,5.9 1.8,9.1 0,3.2 -0.6,6.3 -1.8,9.1 -1.2,2.8 -2.9,5.3 -5,7.4 -2.1,2.1 -4.6,3.8 -7.4,5 -2.8,1.2 -5.9,1.8 -9.1,1.8 z m 0,-4.7 c 5.2,0 9.6,-1.8 13.2,-5.4 3.6,-3.6 5.4,-8 5.4,-13.2 0,-5.2 -1.8,-9.6 -5.4,-13.2 -3.6,-3.6 -8,-5.4 -13.2,-5.4 -5.2,0 -9.6,1.8 -13.2,5.4 -3.6,3.6 -5.4,8 -5.4,13.2 0,5.2 1.8,9.6 5.4,13.2 3.6,3.6 8,5.4 13.2,5.4 z" />
    </g>
    <g
       id="text2"
       class="st1">
      <g
         class="st1"
         id="g41">
        <path
           class="st2"
           d="m 88.4,331.5 c 0,0.6 -0.1,1.2 -0.4,1.6 -0.3,0.4 -0.6,0.8 -1,1 -0.4,0.3 -0.9,0.4 -1.4,0.6 -0.5,0.2 -1,0.2 -1.5,0.2 h -3 V 323 h 2.7 c 0.5,0 1,0 1.5,0.1 0.5,0 0.9,0.3 1.3,0.5 0.4,0.2 0.7,0.5 1,0.9 0.3,0.4 0.4,0.9 0.4,1.5 0,0.6 -0.1,1 -0.3,1.3 -0.2,0.4 -0.5,0.6 -0.8,0.9 -0.3,0.2 -0.7,0.4 -1.1,0.4 0.4,0 0.9,0.2 1.3,0.4 0.4,0.2 0.8,0.5 1,0.9 0.3,0.4 0.4,0.9 0.4,1.6 z M 86.7,326 c 0,-0.7 -0.2,-1.3 -0.7,-1.6 -0.5,-0.3 -1.1,-0.5 -1.8,-0.5 h -2 v 4.2 h 2.2 c 0.7,0 1.3,-0.2 1.7,-0.5 0.4,-0.3 0.6,-0.9 0.6,-1.6 z m 0.5,5.6 c 0,-0.7 -0.1,-1.2 -0.4,-1.5 -0.3,-0.3 -0.6,-0.6 -1,-0.7 -0.4,-0.1 -0.9,-0.2 -1.3,-0.2 h -2.3 v 4.7 h 2.2 c 0.3,0 0.6,0 0.9,0 0.3,0 0.6,-0.2 0.9,-0.3 0.3,-0.2 0.5,-0.4 0.7,-0.7 0.2,-0.3 0.3,-0.7 0.3,-1.2 z"
           id="path12" />
        <path
           class="st2"
           d="m 92.6,325.8 v 6.5 c 0,0.6 0.1,1.1 0.4,1.4 0.3,0.3 0.7,0.4 1.3,0.4 0.6,0 1.1,-0.2 1.6,-0.5 0.5,-0.3 0.9,-0.7 1.1,-1.1 v -6.8 h 1.1 v 9.1 h -0.9 v -1.3 c -0.5,0.5 -0.9,0.8 -1.5,1.1 -0.5,0.3 -1.1,0.4 -1.6,0.4 -0.9,0 -1.5,-0.2 -2,-0.7 -0.5,-0.5 -0.7,-1.1 -0.7,-1.9 v -6.6 h 1.1 z"
           id="path13" />
        <path
           class="st2"
           d="m 106.2,325.8 v 8.2 h 2.6 v 0.9 h -6.6 V 334 h 2.9 v -7.2 h -2.8 v -0.9 h 3.9 z m -1,-4.2 c 0.3,0 0.5,0 0.7,0.3 0.2,0.2 0.2,0.4 0.2,0.6 0,0.2 0,0.5 -0.2,0.6 -0.2,0.1 -0.4,0.3 -0.7,0.3 -0.3,0 -0.5,0 -0.6,-0.3 -0.2,-0.2 -0.2,-0.4 -0.2,-0.6 0,-0.2 0,-0.4 0.2,-0.6 0.2,-0.2 0.4,-0.3 0.6,-0.3 z"
           id="path14" />
        <path
           class="st2"
           d="m 115.5,322.1 v 10.7 c 0,0.5 0.2,0.8 0.5,1 0.3,0.2 0.7,0.3 1.1,0.3 0.4,0 0.6,0 0.8,0 0.3,0 0.5,-0.1 0.8,-0.2 l 0.3,0.8 c -0.2,0.1 -0.5,0.2 -0.9,0.3 -0.4,0.1 -0.7,0.1 -1.2,0.1 -0.7,0 -1.3,-0.2 -1.8,-0.6 -0.5,-0.4 -0.8,-0.9 -0.8,-1.7 V 323 h -2.8 v -0.9 h 3.9 z"
           id="path15" />
        <path
           class="st2"
           d="m 129.7,334.4 c -0.3,0.2 -0.7,0.3 -1.1,0.5 -0.4,0.1 -0.8,0.2 -1.2,0.2 -0.9,0 -1.6,-0.2 -2.1,-0.7 -0.5,-0.5 -0.8,-1.1 -0.8,-1.8 v -5.8 h -2.1 v -0.9 h 2.1 v -2.1 h 1.1 c 0,-0.1 0,2.1 0,2.1 h 3.2 v 0.9 h -3.2 v 5.8 c 0,0.5 0.1,0.9 0.4,1.2 0.3,0.3 0.8,0.4 1.4,0.4 0.6,0 0.7,0 1,-0.1 0.3,0 0.6,-0.2 0.8,-0.3 l 0.5,0.8 z"
           id="path16" />
        <path
           class="st2"
           d="m 144.6,327 c 0.3,-0.5 0.7,-0.8 1.2,-1.1 0.4,-0.2 0.9,-0.4 1.5,-0.4 0.8,0 1.5,0.2 2,0.6 0.5,0.4 0.9,0.9 1.1,1.7 0.2,0.7 0.3,1.5 0.3,2.5 0,1 -0.1,1.7 -0.4,2.4 -0.3,0.7 -0.7,1.3 -1.2,1.7 -0.5,0.4 -1.2,0.6 -2,0.6 -0.8,0 -1.9,-0.4 -2.5,-1.2 v 1 h -1 V 322 h 1.1 c 0,-0.1 0,4.9 0,4.9 z m 2.3,7.1 c 0.8,0 1.5,-0.3 1.9,-0.9 0.4,-0.6 0.7,-1.6 0.7,-2.9 0,-1.3 0,-1.5 -0.3,-2.1 -0.3,-0.6 -0.4,-1 -0.8,-1.3 -0.4,-0.3 -0.8,-0.4 -1.3,-0.4 -0.5,0 -1.1,0.2 -1.5,0.5 -0.4,0.3 -0.8,0.7 -1,1.1 v 4.7 c 0.3,0.4 0.6,0.7 1,0.9 0.4,0.2 0.8,0.4 1.3,0.4 z"
           id="path17" />
        <path
           class="st2"
           d="M 161.2,325.8 158,335 c -0.2,0.6 -0.4,1.1 -0.7,1.6 -0.3,0.5 -0.7,0.9 -1.2,1.3 -0.5,0.4 -1.1,0.6 -1.9,0.7 l -0.2,-0.9 c 0.6,-0.1 1.1,-0.3 1.5,-0.5 0.4,-0.2 0.6,-0.5 0.8,-0.9 0.2,-0.4 0.4,-0.8 0.6,-1.3 h -0.4 l -3.3,-9.1 h 1.2 l 2.9,8.2 2.8,-8.2 h 1.1 z"
           id="path18" />
        <path
           class="st2"
           d="m 180.2,321.9 h 1.1 v 12.9 h -0.9 v -1.3 c -0.5,0.5 -0.9,0.9 -1.4,1.1 -0.4,0.2 -0.9,0.3 -1.4,0.3 -0.8,0 -1.5,-0.2 -2,-0.6 -0.5,-0.4 -0.9,-0.9 -1.1,-1.7 -0.2,-0.7 -0.4,-1.5 -0.4,-2.4 0,-0.9 0.1,-1.7 0.4,-2.4 0.3,-0.7 0.7,-1.3 1.2,-1.7 0.5,-0.4 1.2,-0.6 1.9,-0.6 0.7,0 1,0 1.5,0.3 0.5,0.3 0.8,0.5 1.1,0.9 z m -2.2,4.6 c -0.8,0 -1.5,0.3 -1.9,1 -0.4,0.6 -0.7,1.6 -0.7,2.8 0,1.2 0,1.5 0.3,2 0.2,0.6 0.5,1 0.8,1.3 0.3,0.3 0.8,0.4 1.3,0.4 0.5,0 1.1,-0.2 1.5,-0.5 0.4,-0.3 0.7,-0.7 1,-1.1 v -4.7 c -0.3,-0.4 -0.6,-0.7 -1,-1 -0.4,-0.2 -0.8,-0.3 -1.3,-0.3 z"
           id="path19" />
        <path
           class="st2"
           d="m 185.9,330.7 c 0,0.8 0.2,1.4 0.4,1.9 0.3,0.5 0.6,0.8 1,1.1 0.4,0.3 0.9,0.3 1.4,0.3 0.5,0 0.9,0 1.3,-0.2 0.4,-0.1 0.8,-0.3 1.2,-0.6 l 0.6,0.8 c -0.4,0.3 -0.9,0.6 -1.4,0.8 -0.5,0.2 -1,0.3 -1.5,0.3 -0.8,0 -1.6,-0.2 -2.2,-0.6 -0.6,-0.4 -1.1,-0.9 -1.4,-1.7 -0.3,-0.7 -0.5,-1.5 -0.5,-2.5 0,-1 0.2,-1.7 0.5,-2.5 0.3,-0.7 0.8,-1.3 1.3,-1.7 0.6,-0.4 1.2,-0.6 2,-0.6 0.8,0 1.4,0.2 1.9,0.5 0.5,0.3 0.9,0.9 1.2,1.5 0.3,0.7 0.4,1.4 0.4,2.3 0,0.9 0,0.3 0,0.4 0,0.1 0,0.2 0,0.3 h -6.2 z m 2.7,-4.1 c -0.7,0 -1.4,0.3 -1.9,0.8 -0.5,0.5 -0.8,1.3 -0.8,2.4 h 5.2 c 0,-1.1 -0.3,-1.9 -0.7,-2.4 -0.5,-0.5 -1,-0.8 -1.8,-0.8 z"
           id="path20" />
        <path
           class="st2"
           d="m 202.8,325.8 -3.4,9.1 h -1.2 l -3.3,-9.1 h 1.1 l 2.9,8 2.8,-8 z"
           id="path21" />
        <path
           class="st2"
           d="m 206.7,330.7 c 0,0.8 0.2,1.4 0.4,1.9 0.3,0.5 0.6,0.8 1,1.1 0.4,0.3 0.9,0.3 1.4,0.3 0.5,0 0.9,0 1.3,-0.2 0.4,-0.1 0.8,-0.3 1.2,-0.6 l 0.6,0.8 c -0.4,0.3 -0.9,0.6 -1.4,0.8 -0.5,0.2 -1,0.3 -1.5,0.3 -0.8,0 -1.6,-0.2 -2.2,-0.6 -0.6,-0.4 -1.1,-0.9 -1.4,-1.7 -0.3,-0.7 -0.5,-1.5 -0.5,-2.5 0,-1 0.2,-1.7 0.5,-2.5 0.3,-0.7 0.8,-1.3 1.3,-1.7 0.6,-0.4 1.2,-0.6 2,-0.6 0.8,0 1.4,0.2 1.9,0.5 0.5,0.3 0.9,0.9 1.2,1.5 0.3,0.7 0.4,1.4 0.4,2.3 0,0.9 0,0.3 0,0.4 0,0.1 0,0.2 0,0.3 h -6.2 z m 2.7,-4.1 c -0.7,0 -1.4,0.3 -1.9,0.8 -0.5,0.5 -0.8,1.3 -0.8,2.4 h 5.2 c 0,-1.1 -0.3,-1.9 -0.7,-2.4 -0.5,-0.5 -1,-0.8 -1.8,-0.8 z"
           id="path22" />
        <path
           class="st2"
           d="m 219.5,322.1 v 10.7 c 0,0.5 0.2,0.8 0.5,1 0.3,0.2 0.7,0.3 1.1,0.3 0.4,0 0.6,0 0.8,0 0.3,0 0.5,-0.1 0.8,-0.2 l 0.3,0.8 c -0.2,0.1 -0.5,0.2 -0.9,0.3 -0.4,0.1 -0.7,0.1 -1.2,0.1 -0.7,0 -1.3,-0.2 -1.8,-0.6 -0.5,-0.4 -0.8,-0.9 -0.8,-1.7 V 323 h -2.8 v -0.9 h 3.9 z"
           id="path23" />
        <path
           class="st2"
           d="m 230,325.6 c 0.8,0 1.5,0.2 2.1,0.6 0.6,0.4 1,0.9 1.2,1.6 0.2,0.7 0.4,1.5 0.4,2.5 0,1 -0.1,1.7 -0.4,2.4 -0.3,0.7 -0.7,1.3 -1.3,1.7 -0.6,0.4 -1.2,0.6 -2.1,0.6 -0.9,0 -1.5,-0.2 -2.1,-0.6 -0.6,-0.4 -1,-0.9 -1.3,-1.7 -0.3,-0.7 -0.4,-1.5 -0.4,-2.5 0,-1 0.1,-1.8 0.4,-2.5 0.3,-0.7 0.7,-1.3 1.3,-1.7 0.6,-0.4 1.3,-0.6 2.1,-0.6 z m 0,0.9 c -0.9,0 -1.5,0.3 -1.9,0.9 -0.4,0.6 -0.7,1.6 -0.7,2.9 0,1.3 0.2,2.2 0.7,2.8 0.4,0.6 1.1,0.9 1.9,0.9 0.8,0 1.5,-0.3 1.9,-0.9 0.4,-0.6 0.6,-1.6 0.6,-2.8 0,-1.2 -0.2,-2.2 -0.6,-2.8 -0.4,-0.6 -1.1,-0.9 -1.9,-0.9 z"
           id="path24" />
        <path
           class="st2"
           d="m 240.9,325.6 c 0.8,0 1.5,0.2 1.9,0.6 0.5,0.4 0.8,0.9 1,1.7 0.2,0.8 0.3,1.5 0.3,2.5 0,1 -0.1,1.7 -0.4,2.4 -0.3,0.7 -0.6,1.3 -1.2,1.7 -0.5,0.4 -1.2,0.6 -2,0.6 -0.8,0 -1.9,-0.4 -2.5,-1.1 v 4.4 h -1.1 c 0,0.1 0,-12.6 0,-12.6 h 0.9 v 1.3 c 0.4,-0.5 0.8,-0.8 1.3,-1.1 0.5,-0.3 1,-0.4 1.6,-0.4 z m -0.2,0.9 c -0.6,0 -1.1,0.2 -1.5,0.5 -0.4,0.3 -0.8,0.7 -1,1.1 v 4.7 c 0.3,0.4 0.6,0.7 1,0.9 0.4,0.2 0.8,0.3 1.3,0.3 0.8,0 1.5,-0.3 1.9,-0.9 0.4,-0.6 0.6,-1.6 0.6,-2.8 0,-1.2 0,-1.5 -0.2,-2.1 -0.2,-0.6 -0.4,-1 -0.7,-1.3 -0.3,-0.3 -0.8,-0.4 -1.3,-0.4 z"
           id="path25" />
        <path
           class="st2"
           d="m 248.3,330.7 c 0,0.8 0.2,1.4 0.4,1.9 0.3,0.5 0.6,0.8 1,1.1 0.4,0.3 0.9,0.3 1.4,0.3 0.5,0 0.9,0 1.3,-0.2 0.4,-0.1 0.8,-0.3 1.2,-0.6 l 0.6,0.8 c -0.4,0.3 -0.9,0.6 -1.4,0.8 -0.5,0.2 -1,0.3 -1.5,0.3 -0.8,0 -1.6,-0.2 -2.2,-0.6 -0.6,-0.4 -1.1,-0.9 -1.4,-1.7 -0.3,-0.7 -0.5,-1.5 -0.5,-2.5 0,-1 0.2,-1.7 0.5,-2.5 0.3,-0.7 0.8,-1.3 1.3,-1.7 0.6,-0.4 1.2,-0.6 2,-0.6 0.8,0 1.4,0.2 1.9,0.5 0.5,0.3 0.9,0.9 1.2,1.5 0.3,0.7 0.4,1.4 0.4,2.3 0,0.9 0,0.3 0,0.4 0,0.1 0,0.2 0,0.3 h -6.2 z m 2.7,-4.1 c -0.7,0 -1.4,0.3 -1.9,0.8 -0.5,0.5 -0.8,1.3 -0.8,2.4 h 5.2 c 0,-1.1 -0.3,-1.9 -0.7,-2.4 -0.5,-0.5 -1,-0.8 -1.8,-0.8 z"
           id="path26" />
        <path
           class="st2"
           d="M 258,334.9 V 334 h 1.5 v -7.3 H 258 v -0.9 h 2.3 l 0.2,2.2 c 0.4,-0.7 0.8,-1.3 1.3,-1.7 0.5,-0.4 1.2,-0.6 2,-0.6 0.8,0 0.4,0 0.6,0 0.2,0 0.4,0 0.6,0.1 l -0.3,1 c -0.2,0 -0.4,0 -0.5,-0.1 -0.2,0 -0.3,0 -0.5,0 -0.7,0 -1.4,0.2 -1.9,0.7 -0.5,0.5 -0.9,1.3 -1.3,2.4 v 4.2 h 1.9 v 0.9 z m 5.9,-6.3 v -2.9 h 1.2 v 2.9 z"
           id="path27" />
        <path
           class="st2"
           d="m 271.2,334 c 0.8,0 1.4,-0.1 1.8,-0.4 0.4,-0.3 0.7,-0.7 0.7,-1.2 0,-0.5 0,-0.6 -0.1,-0.8 -0.1,-0.2 -0.3,-0.4 -0.6,-0.6 -0.3,-0.2 -0.8,-0.3 -1.5,-0.5 -0.7,-0.2 -1.2,-0.3 -1.7,-0.5 -0.5,-0.2 -0.8,-0.5 -1.1,-0.8 -0.3,-0.3 -0.4,-0.7 -0.4,-1.3 0,-0.6 0.1,-0.9 0.4,-1.3 0.3,-0.4 0.7,-0.6 1.2,-0.8 0.5,-0.2 1.1,-0.3 1.7,-0.3 0.6,0 1.3,0 1.9,0.3 0.5,0.2 1,0.4 1.3,0.7 l -0.5,0.8 c -0.3,-0.2 -0.7,-0.4 -1.1,-0.6 -0.4,-0.2 -0.9,-0.2 -1.6,-0.2 -0.7,0 -1.4,0.1 -1.7,0.4 -0.3,0.3 -0.5,0.6 -0.5,1 0,0.4 0,0.5 0.2,0.7 0.2,0.2 0.4,0.4 0.8,0.5 0.4,0.1 0.9,0.3 1.5,0.5 0.6,0.2 1.1,0.3 1.6,0.6 0.4,0.2 0.8,0.5 1,0.9 0.2,0.4 0.4,0.8 0.4,1.4 0,0.6 -0.2,1.2 -0.5,1.5 -0.4,0.4 -0.8,0.7 -1.4,0.8 -0.6,0.2 -1.2,0.3 -1.8,0.3 -0.6,0 -1.5,-0.1 -2,-0.4 -0.6,-0.2 -1,-0.5 -1.4,-0.8 l 0.7,-0.8 c 0.4,0.3 0.8,0.5 1.2,0.7 0.4,0.2 1,0.3 1.5,0.3 z"
           id="path28" />
        <path
           class="st2"
           d="m 294.4,321.9 c 0.4,0 0.8,0 1.2,0.1 0.4,0 0.7,0.2 1.1,0.3 l -0.4,0.9 c -0.3,-0.1 -0.6,-0.2 -0.9,-0.3 -0.3,0 -0.7,0 -1,0 -0.7,0 -1.2,0.1 -1.5,0.4 -0.3,0.3 -0.5,0.7 -0.5,1.2 v 2 h 3.1 v 0.9 h -3.1 v 7.4 h -1.1 v -7.4 H 289 v -0.9 h 2.3 v -2 c 0,-0.5 0.1,-1 0.4,-1.4 0.3,-0.4 0.7,-0.7 1.2,-0.9 0.5,-0.2 1,-0.3 1.6,-0.3 z"
           id="path29" />
        <path
           class="st2"
           d="m 302.8,325.6 c 0.8,0 1.5,0.2 2.1,0.6 0.6,0.4 1,0.9 1.2,1.6 0.2,0.7 0.4,1.5 0.4,2.5 0,1 -0.1,1.7 -0.4,2.4 -0.3,0.7 -0.7,1.3 -1.3,1.7 -0.6,0.4 -1.2,0.6 -2.1,0.6 -0.9,0 -1.5,-0.2 -2.1,-0.6 -0.6,-0.4 -1,-0.9 -1.3,-1.7 -0.3,-0.7 -0.4,-1.5 -0.4,-2.5 0,-1 0.1,-1.8 0.4,-2.5 0.3,-0.7 0.7,-1.3 1.3,-1.7 0.6,-0.4 1.3,-0.6 2.1,-0.6 z m 0,0.9 c -0.9,0 -1.5,0.3 -1.9,0.9 -0.4,0.6 -0.7,1.6 -0.7,2.9 0,1.3 0.2,2.2 0.7,2.8 0.5,0.6 1.1,0.9 1.9,0.9 0.8,0 1.5,-0.3 1.9,-0.9 0.4,-0.6 0.7,-1.6 0.7,-2.8 0,-1.2 -0.2,-2.2 -0.6,-2.8 -0.4,-0.6 -1.1,-0.9 -1.9,-0.9 z"
           id="path30" />
        <path
           class="st2"
           d="M 310,334.9 V 334 h 1.5 v -7.3 H 310 v -0.9 h 2.3 l 0.2,2.2 c 0.4,-0.7 0.8,-1.3 1.3,-1.7 0.5,-0.4 1.2,-0.6 2,-0.6 0.8,0 0.4,0 0.6,0 0.2,0 0.4,0 0.6,0.1 l -0.3,1 c -0.2,0 -0.4,0 -0.5,-0.1 -0.1,-0.1 -0.3,0 -0.5,0 -0.7,0 -1.4,0.2 -1.9,0.7 -0.5,0.5 -0.9,1.3 -1.3,2.4 v 4.2 h 1.9 v 0.9 z m 5.9,-6.3 v -2.9 h 1.2 v 2.9 z"
           id="path31" />
        <path
           class="st2"
           d="m 336.2,321.9 h 1.1 v 12.9 h -0.9 v -1.3 c -0.5,0.5 -0.9,0.9 -1.4,1.1 -0.4,0.2 -0.9,0.3 -1.4,0.3 -0.8,0 -1.5,-0.2 -2,-0.6 -0.5,-0.4 -0.9,-0.9 -1.1,-1.7 -0.2,-0.7 -0.4,-1.5 -0.4,-2.4 0,-0.9 0.1,-1.7 0.4,-2.4 0.3,-0.7 0.7,-1.3 1.2,-1.7 0.5,-0.4 1.2,-0.6 1.9,-0.6 0.7,0 1,0 1.5,0.3 0.5,0.3 0.8,0.5 1.1,0.9 z m -2.2,4.6 c -0.8,0 -1.5,0.3 -1.9,1 -0.4,0.6 -0.7,1.6 -0.7,2.8 0,1.2 0,1.5 0.3,2 0.2,0.6 0.5,1 0.8,1.3 0.4,0.3 0.8,0.4 1.3,0.4 0.5,0 1.1,-0.2 1.5,-0.5 0.4,-0.3 0.7,-0.7 1,-1.1 v -4.7 c -0.3,-0.4 -0.6,-0.7 -1,-1 -0.4,-0.2 -0.8,-0.3 -1.3,-0.3 z"
           id="path32" />
        <path
           class="st2"
           d="m 341.9,330.7 c 0,0.8 0.2,1.4 0.4,1.9 0.3,0.5 0.6,0.8 1,1.1 0.4,0.2 0.9,0.3 1.4,0.3 0.5,0 0.9,0 1.3,-0.2 0.4,-0.1 0.8,-0.3 1.2,-0.6 l 0.6,0.8 c -0.4,0.3 -0.9,0.6 -1.4,0.8 -0.5,0.2 -1,0.3 -1.5,0.3 -0.8,0 -1.6,-0.2 -2.2,-0.6 -0.6,-0.4 -1.1,-0.9 -1.4,-1.7 -0.3,-0.7 -0.5,-1.5 -0.5,-2.5 0,-1 0.2,-1.7 0.5,-2.5 0.3,-0.8 0.8,-1.3 1.3,-1.7 0.6,-0.4 1.2,-0.6 2,-0.6 0.8,0 1.4,0.2 1.9,0.5 0.5,0.3 0.9,0.9 1.2,1.5 0.3,0.7 0.4,1.4 0.4,2.3 0,0.9 0,0.3 0,0.4 0,0.1 0,0.2 0,0.3 h -6.2 z m 2.7,-4.1 c -0.7,0 -1.4,0.3 -1.9,0.8 -0.5,0.5 -0.8,1.3 -0.8,2.4 h 5.2 c 0,-1.1 -0.3,-1.9 -0.7,-2.4 -0.5,-0.5 -1,-0.8 -1.8,-0.8 z"
           id="path33" />
        <path
           class="st2"
           d="m 358.8,325.8 -3.4,9.1 h -1.2 l -3.3,-9.1 h 1.1 l 2.9,8 2.8,-8 z"
           id="path34" />
        <path
           class="st2"
           d="m 362.7,330.7 c 0,0.8 0.2,1.4 0.4,1.9 0.3,0.5 0.6,0.8 1,1.1 0.4,0.2 0.9,0.3 1.4,0.3 0.5,0 0.9,0 1.3,-0.2 0.4,-0.1 0.8,-0.3 1.2,-0.6 l 0.6,0.8 c -0.4,0.3 -0.9,0.6 -1.4,0.8 -0.5,0.2 -1,0.3 -1.5,0.3 -0.8,0 -1.6,-0.2 -2.2,-0.6 -0.6,-0.4 -1.1,-0.9 -1.4,-1.7 -0.3,-0.7 -0.5,-1.5 -0.5,-2.5 0,-1 0.2,-1.7 0.5,-2.5 0.3,-0.8 0.8,-1.3 1.3,-1.7 0.6,-0.4 1.2,-0.6 2,-0.6 0.8,0 1.4,0.2 1.9,0.5 0.5,0.3 0.9,0.9 1.2,1.5 0.3,0.7 0.4,1.4 0.4,2.3 0,0.9 0,0.3 0,0.4 0,0.1 0,0.2 0,0.3 h -6.2 z m 2.7,-4.1 c -0.7,0 -1.4,0.3 -1.9,0.8 -0.5,0.5 -0.8,1.3 -0.8,2.4 h 5.2 c 0,-1.1 -0.3,-1.9 -0.7,-2.4 -0.5,-0.5 -1,-0.8 -1.8,-0.8 z"
           id="path35" />
        <path
           class="st2"
           d="m 375.5,322.1 v 10.7 c 0,0.5 0.2,0.8 0.5,1 0.3,0.2 0.7,0.3 1.1,0.3 0.4,0 0.6,0 0.8,0 0.3,0 0.5,-0.1 0.8,-0.2 l 0.3,0.8 c -0.2,0.1 -0.5,0.2 -0.9,0.3 -0.4,0.1 -0.7,0.1 -1.2,0.1 -0.7,0 -1.3,-0.2 -1.8,-0.6 -0.5,-0.4 -0.8,-0.9 -0.8,-1.7 V 323 h -2.8 v -0.9 h 3.9 z"
           id="path36" />
        <path
           class="st2"
           d="m 386,325.6 c 0.8,0 1.5,0.2 2.1,0.6 0.6,0.4 1,0.9 1.2,1.6 0.2,0.7 0.4,1.5 0.4,2.5 0,1 -0.1,1.7 -0.4,2.4 -0.3,0.7 -0.7,1.3 -1.3,1.7 -0.6,0.4 -1.2,0.6 -2.1,0.6 -0.9,0 -1.5,-0.2 -2.1,-0.6 -0.6,-0.4 -1,-0.9 -1.3,-1.7 -0.3,-0.7 -0.4,-1.5 -0.4,-2.5 0,-1 0.1,-1.8 0.4,-2.5 0.3,-0.7 0.7,-1.3 1.3,-1.7 0.6,-0.4 1.3,-0.6 2.1,-0.6 z m 0,0.9 c -0.9,0 -1.5,0.3 -1.9,0.9 -0.4,0.6 -0.7,1.6 -0.7,2.9 0,1.3 0.2,2.2 0.7,2.8 0.4,0.6 1.1,0.9 1.9,0.9 0.8,0 1.5,-0.3 1.9,-0.9 0.4,-0.6 0.6,-1.6 0.6,-2.8 0,-1.2 -0.2,-2.2 -0.6,-2.8 -0.4,-0.6 -1.1,-0.9 -1.9,-0.9 z"
           id="path37" />
        <path
           class="st2"
           d="m 396.9,325.6 c 0.8,0 1.5,0.2 1.9,0.6 0.5,0.4 0.8,0.9 1,1.7 0.2,0.8 0.3,1.5 0.3,2.5 0,1 -0.1,1.7 -0.4,2.4 -0.3,0.7 -0.6,1.3 -1.2,1.7 -0.5,0.4 -1.2,0.6 -2,0.6 -0.8,0 -1.9,-0.4 -2.5,-1.1 v 4.4 h -1.1 c 0,0.1 0,-12.6 0,-12.6 h 0.9 v 1.3 c 0.4,-0.5 0.8,-0.8 1.3,-1.1 0.5,-0.3 1,-0.4 1.6,-0.4 z m -0.2,0.9 c -0.6,0 -1.1,0.2 -1.5,0.5 -0.4,0.3 -0.8,0.7 -1,1.1 v 4.7 c 0.3,0.4 0.6,0.7 1,0.9 0.4,0.2 0.8,0.3 1.3,0.3 0.8,0 1.5,-0.3 1.9,-0.9 0.4,-0.6 0.6,-1.6 0.6,-2.8 0,-1.2 0,-1.5 -0.2,-2.1 -0.2,-0.6 -0.4,-1 -0.8,-1.3 -0.4,-0.3 -0.8,-0.4 -1.3,-0.4 z"
           id="path38" />
        <path
           class="st2"
           d="m 404.3,330.7 c 0,0.8 0.2,1.4 0.4,1.9 0.3,0.5 0.6,0.8 1,1.1 0.4,0.2 0.9,0.3 1.4,0.3 0.5,0 0.9,0 1.3,-0.2 0.4,-0.1 0.8,-0.3 1.2,-0.6 l 0.6,0.8 c -0.4,0.3 -0.9,0.6 -1.4,0.8 -0.5,0.2 -1,0.3 -1.5,0.3 -0.8,0 -1.6,-0.2 -2.2,-0.6 -0.6,-0.4 -1.1,-0.9 -1.4,-1.7 -0.3,-0.7 -0.5,-1.5 -0.5,-2.5 0,-1 0.2,-1.7 0.5,-2.5 0.3,-0.8 0.8,-1.3 1.3,-1.7 0.6,-0.4 1.2,-0.6 2,-0.6 0.8,0 1.4,0.2 1.9,0.5 0.5,0.3 0.9,0.9 1.2,1.5 0.3,0.7 0.4,1.4 0.4,2.3 0,0.9 0,0.3 0,0.4 0,0.1 0,0.2 0,0.3 h -6.2 z m 2.7,-4.1 c -0.7,0 -1.4,0.3 -1.9,0.8 -0.5,0.5 -0.8,1.3 -0.8,2.4 h 5.2 c 0,-1.1 -0.3,-1.9 -0.7,-2.4 -0.5,-0.5 -1,-0.8 -1.8,-0.8 z"
           id="path39" />
        <path
           class="st2"
           d="M 414,334.9 V 334 h 1.5 v -7.3 H 414 v -0.9 h 2.3 l 0.2,2.2 c 0.4,-0.7 0.8,-1.3 1.3,-1.7 0.5,-0.4 1.2,-0.6 2,-0.6 0.8,0 0.4,0 0.6,0 0.2,0 0.4,0 0.6,0.1 l -0.3,1 c -0.2,0 -0.4,0 -0.5,-0.1 -0.1,-0.1 -0.3,0 -0.5,0 -0.7,0 -1.4,0.2 -1.9,0.7 -0.5,0.5 -0.9,1.3 -1.3,2.4 v 4.2 h 1.9 v 0.9 z m 5.9,-6.3 v -2.9 h 1.2 v 2.9 z"
           id="path40" />
        <path
           class="st2"
           d="m 427.2,334 c 0.8,0 1.4,-0.1 1.8,-0.4 0.4,-0.3 0.7,-0.7 0.7,-1.2 0,-0.5 0,-0.6 -0.1,-0.8 0,-0.2 -0.3,-0.4 -0.6,-0.6 -0.3,-0.2 -0.8,-0.3 -1.5,-0.5 -0.7,-0.2 -1.2,-0.3 -1.7,-0.5 -0.5,-0.2 -0.8,-0.5 -1.1,-0.8 -0.3,-0.3 -0.4,-0.7 -0.4,-1.3 0,-0.6 0.1,-0.9 0.4,-1.3 0.3,-0.4 0.7,-0.6 1.2,-0.8 0.5,-0.2 1.1,-0.3 1.7,-0.3 0.6,0 1.3,0 1.9,0.3 0.5,0.2 1,0.4 1.3,0.7 l -0.5,0.8 c -0.3,-0.2 -0.7,-0.4 -1.1,-0.6 -0.4,-0.2 -0.9,-0.2 -1.6,-0.2 -0.7,0 -1.4,0.1 -1.7,0.4 -0.3,0.3 -0.5,0.6 -0.5,1 0,0.4 0,0.5 0.2,0.7 0.2,0.2 0.4,0.4 0.8,0.5 0.4,0.1 0.9,0.3 1.5,0.5 0.6,0.2 1.1,0.3 1.6,0.6 0.4,0.2 0.8,0.5 1,0.9 0.2,0.4 0.4,0.8 0.4,1.4 0,0.6 -0.2,1.2 -0.5,1.5 -0.3,0.3 -0.8,0.7 -1.4,0.8 -0.6,0.2 -1.2,0.3 -1.8,0.3 -0.6,0 -1.5,-0.1 -2,-0.4 -0.6,-0.2 -1,-0.5 -1.4,-0.8 l 0.7,-0.8 c 0.4,0.3 0.8,0.5 1.2,0.7 0.4,0.2 1,0.3 1.5,0.3 z"
           id="path41" />
      </g>
    </g>
  </g>
</svg>
